<svg xmlns="http://www.w3.org/2000/svg" viewBox="0 0 1369.91 8648.25"><defs><style>.cls-1{fill:none;stroke:#8cb2de;stroke-miterlimit:10;stroke-width:20px;isolation:isolate;}</style></defs><g id="Capa_2" data-name="Capa 2"><g id="fondo"><path class="cls-1" d="M1023,765c-.57-16.38,3.42-24.39,19.76-37.45,120.94-96.6,92.93-251.73,21.49-272.74-51.49-15.17-105.93,2.86-158.15,13.84C628,527.34,332.2,374.29,161.71,160.86,115.72,103.35,10,7,10,0"/><path class="cls-1" d="M788,1556c0-15,20.63-172.14-36.79-234.55-38.1-41.41-86.5-78.25-103.77-129.68s20.71-121.08,78.64-112.19c30,4.66,58.77,28.87,86.85,19.06,12.61-4.41,20.39-114.29,28.32-124.14C914.59,883,953,986.31,1026.37,894.81c27.37-34.14,1.31-75.24.63-106.81"/><path class="cls-1" d="M1149,2344c-1-7,151.34-103.66,188.77-170.45s29.57-161.85-39.51-204.93c-34.48-21.53-77.51-26.74-116.71-39.56C1117.8,1908.27,1005,2001,963.12,1952S930,1842.17,904.74,1784.82C889.46,1750.18,814.13,1631.32,800,1596c-2-5-12-6-12-20"/><path class="cls-1" d="M537,3132c0-9-33.37-234.29-62.45-354.21-32.16-132.88-57.36-307.93,63.12-374.67,89.41-49.64,198.85-.47,292.94,39.78s195.55,82.31,259.39,3.1c38.52-47.62,45-73,45-82"/><path class="cls-1" d="M522,3920c-.58-66.43,9-123.78,16-190.15,20.49-195.24,0-568.85,0-577.85"/><path class="cls-1" d="M822,4708c0-2-51.81-168.41-84.28-256-54.12-145.83-171-266.25-204.49-418.13-7.61-34.28-10.92-58.9-11.23-93.87"/><path class="cls-1" d="M699,5496c0-6,50.1-157.48,117.09-213.9q6.3-5.34,13-10.33c104.76-78.38,282.37-112.1,284.41-242,2-124.58-163.57-169.94-249.13-261.26C849.76,4753,832,4735,832,4728"/><path class="cls-1" d="M494,6284c0-9,63.41-66,94.92-105.42,64-79.92,84.6-180.27,90.6-283.94,3.6-60.21,2.28-121.6,1.56-180.86-.12-13.42-.12-27.08.12-40.86C682,5617.9,695,5526,695,5516"/><path class="cls-1" d="M613,7072c0-3-5.49-9.64-4.76-21,1.68-26.13,29.52-40.85,49.44-57.95,54.48-46.56,56.28-136.33,13.92-193.93S553,6714.88,481.15,6718c-22.44.95-47,3.92-65.64-8.55-44-29.33-28.68-86.45,9.36-123.27,42.6,4.87,69.36-48.09,64.44-90.25s-27.48-81.82-26.64-124.22c.36-27,6.29-45.24,20.33-67.68-2.43,5.71-.65,1,0,0"/><path class="cls-1" d="M291,7860c0-5,37.1-19.58,57-38.67"/><path class="cls-1" d="M268,7880c0,5-37.07,22.55-54.84,41.22-28.95,30.51-37.39,74.24-30,114.57a78.87,78.87,0,0,0,6.18,18.92c4.57,9.61,10.66,18.46,17,27.12,7.9,10.82,16,20.52,27.78,27.3,11.42,6.5,25.21,8.19,36,15.91,12.56,9.13,17.7,25.14,27.78,36.9C309.15,8175.22,326,8182.56,340,8193c14.87,11,17.36,36.86,30,42.52,7.78,3.49,23.19,1.06,32.21,3.09a133.08,133.08,0,0,1,27,9.27c36,16.83,63.14,48.68,79.62,84,19.6,42,29.11,88.3,45.85,131.32A273.51,273.51,0,0,0,576,8507.73c-8.85,5.09-17.6,10.17-26.35,15.16,0,0-42.81,3.11-39.73,125.11"/><path class="cls-1" d="M76,7860c0-7-.27-2.12-1.64-9-2.86-14.39-9.11-29.17-19.06-39.62a18,18,0,0,1,3.18-27.68l38.76-24.55a17,17,0,0,0,2.91-2.29c22.62-22,39.83-47.8,46.06-80.53,9.73-50.35-6.36-118.75,40.57-140.48,21.84-10.1,47.52-3.09,71.4-6.06,74.52-9.14,100.08-102.13,106-176.35,2.64-34.08,7.93-72,20.05-104.74,13.8-38.6,37.2-70.07,76.68-79.69,61.89-15.19,142.57,32.27,184.19-12.45a17.64,17.64,0,0,0,4.59-9c4-23.16-25.65-49.1-25.65-55.57"/><path class="cls-1" d="M189.47,8054.71c-16.36.19-33.87,1.32-46.14-8.94-11.7-9.79-14.08-26.26-18.74-40.57-9.8-30.32-32.25-55.55-40.91-86.15C79.32,7903.77,77,7895,77,7880"/></g></g></svg>